<?xml version="1.0" encoding="utf-8"?>
<!-- Generator: Adobe Illustrator 25.0.1, SVG Export Plug-In . SVG Version: 6.00 Build 0)  -->
<svg version="1.1" id="Layer_1" xmlns="http://www.w3.org/2000/svg" xmlns:xlink="http://www.w3.org/1999/xlink" x="0px" y="0px"
	 viewBox="0 0 24 24" style="enable-background:new 0 0 24 24;" xml:space="preserve">
<style type="text/css">
	.st0{stroke:#000000;stroke-width:0.75;stroke-miterlimit:10;}
</style>
<g id="XMLID_21_">
	<g>
		<g>
			<path class="st0" d="M21.7,1H2.3C1.6,1,1,1.6,1,2.3v19.3C1,22.4,1.6,23,2.3,23h19.3c0.7,0,1.3-0.6,1.3-1.3V2.3
				C23,1.6,22.4,1,21.7,1z M22.1,21.7c0,0.2-0.2,0.4-0.4,0.4H2.3c-0.2,0-0.4-0.2-0.4-0.4V2.3c0-0.2,0.2-0.4,0.4-0.4h19.3
				c0.2,0,0.4,0.2,0.4,0.4V21.7z"/>
			<path class="st0" d="M16,9.4h-2v-2c0,0,0,0,0,0h1.6C15.8,7.4,16,7.3,16,7V4.3c0-0.2-0.2-0.4-0.4-0.4h-2.4c-1.6,0-2.4,0.9-2.8,1.6
				C10,6.3,10,7,10,7v2.4H8c-0.2,0-0.4,0.2-0.4,0.4V13c0,0.2,0.2,0.4,0.4,0.4h1.6v6.1c0,0.2,0.2,0.4,0.4,0.4h3.6
				c0.2,0,0.4-0.2,0.4-0.4V13h1.6c0.2,0,0.4-0.1,0.4-0.3l0.4-2.8c0-0.1,0-0.2-0.1-0.3C16.2,9.5,16.1,9.4,16,9.4z M15.2,12.2h-1.6
				c-0.2,0-0.4,0.2-0.4,0.4v6.5h-2.8V13c0-0.2-0.2-0.4-0.4-0.4H8.4v-2.4h2c0.2,0,0.4-0.2,0.4-0.4V7c0,0,0-0.6,0.3-1.2
				c0.4-0.8,1.1-1.1,2.1-1.1h2v2H14c-0.4,0-0.8,0.3-0.8,0.8v2.4c0,0.2,0.2,0.4,0.4,0.4h1.9L15.2,12.2z"/>
		</g>
	</g>
</g>
</svg>
